<mxfile host="app.diagrams.net" agent="Mozilla/5.0 (Windows NT 10.0; Win64; x64) AppleWebKit/537.36 (KHTML, like Gecko) Chrome/129.0.0.0 Safari/537.36" version="24.8.3">
  <diagram name="Page-1" id="1QPhJKA11TGKgs7WSQvj">
    <mxGraphModel dx="1444" dy="825" grid="1" gridSize="10" guides="1" tooltips="1" connect="1" arrows="1" fold="1" page="1" pageScale="1" pageWidth="1169" pageHeight="827" math="0" shadow="0">
      <root>
        <mxCell id="0" />
        <mxCell id="1" parent="0" />
        <mxCell id="PJq4ZduZdzAgiIetN25B-19" value="AWS Cloud" style="sketch=0;outlineConnect=0;gradientColor=none;html=1;whiteSpace=wrap;fontSize=12;fontStyle=0;shape=mxgraph.aws4.group;grIcon=mxgraph.aws4.group_aws_cloud;strokeColor=#AAB7B8;fillColor=none;verticalAlign=top;align=left;spacingLeft=30;fontColor=#AAB7B8;dashed=0;movable=0;resizable=0;rotatable=0;deletable=0;editable=0;locked=1;connectable=0;" vertex="1" parent="1">
          <mxGeometry x="270" y="80" width="500" height="280" as="geometry" />
        </mxCell>
        <mxCell id="PJq4ZduZdzAgiIetN25B-2" value="" style="sketch=0;outlineConnect=0;fontColor=#232F3E;gradientColor=none;fillColor=#7AA116;strokeColor=none;dashed=0;verticalLabelPosition=bottom;verticalAlign=top;align=center;html=1;fontSize=12;fontStyle=0;aspect=fixed;pointerEvents=1;shape=mxgraph.aws4.bucket;movable=0;resizable=0;rotatable=0;deletable=0;editable=0;locked=1;connectable=0;" vertex="1" parent="1">
          <mxGeometry x="300" y="181" width="75" height="78" as="geometry" />
        </mxCell>
        <mxCell id="PJq4ZduZdzAgiIetN25B-3" value="" style="outlineConnect=0;dashed=0;verticalLabelPosition=bottom;verticalAlign=top;align=center;html=1;shape=mxgraph.aws3.iam;fillColor=#759C3E;gradientColor=none;" vertex="1" parent="1">
          <mxGeometry x="499" y="373" width="42" height="81" as="geometry" />
        </mxCell>
        <mxCell id="PJq4ZduZdzAgiIetN25B-5" value="" style="rounded=0;whiteSpace=wrap;html=1;fillColor=#EAEDED;fontSize=22;fontColor=#FFFFFF;strokeColor=none;labelBackgroundColor=none;movable=0;resizable=0;rotatable=0;deletable=0;editable=0;locked=1;connectable=0;" vertex="1" parent="1">
          <mxGeometry x="810" width="539" height="969" as="geometry" />
        </mxCell>
        <mxCell id="PJq4ZduZdzAgiIetN25B-6" value="1" style="rounded=1;whiteSpace=wrap;html=1;fillColor=#007CBD;strokeColor=none;fontColor=#FFFFFF;fontStyle=1;fontSize=22;labelBackgroundColor=none;" vertex="1" parent="1">
          <mxGeometry x="840" y="20" width="40" height="38" as="geometry" />
        </mxCell>
        <mxCell id="PJq4ZduZdzAgiIetN25B-7" value="2" style="rounded=1;whiteSpace=wrap;html=1;fillColor=#007CBD;strokeColor=none;fontColor=#FFFFFF;fontStyle=1;fontSize=22;labelBackgroundColor=none;" vertex="1" parent="1">
          <mxGeometry x="840" y="100" width="40" height="38" as="geometry" />
        </mxCell>
        <mxCell id="PJq4ZduZdzAgiIetN25B-8" value="3" style="rounded=1;whiteSpace=wrap;html=1;fillColor=#007CBD;strokeColor=none;fontColor=#FFFFFF;fontStyle=1;fontSize=22;labelBackgroundColor=none;" vertex="1" parent="1">
          <mxGeometry x="840" y="181" width="40" height="38" as="geometry" />
        </mxCell>
        <mxCell id="PJq4ZduZdzAgiIetN25B-9" value="4" style="rounded=1;whiteSpace=wrap;html=1;fillColor=#007CBD;strokeColor=none;fontColor=#FFFFFF;fontStyle=1;fontSize=22;labelBackgroundColor=none;" vertex="1" parent="1">
          <mxGeometry x="840" y="254" width="40" height="38" as="geometry" />
        </mxCell>
        <mxCell id="PJq4ZduZdzAgiIetN25B-10" value="5" style="rounded=1;whiteSpace=wrap;html=1;fillColor=#007CBD;strokeColor=none;fontColor=#FFFFFF;fontStyle=1;fontSize=22;labelBackgroundColor=none;" vertex="1" parent="1">
          <mxGeometry x="840" y="331.5" width="40" height="38" as="geometry" />
        </mxCell>
        <mxCell id="PJq4ZduZdzAgiIetN25B-11" value="6" style="rounded=1;whiteSpace=wrap;html=1;fillColor=#007CBD;strokeColor=none;fontColor=#FFFFFF;fontStyle=1;fontSize=22;labelBackgroundColor=none;" vertex="1" parent="1">
          <mxGeometry x="840" y="395" width="40" height="38" as="geometry" />
        </mxCell>
        <mxCell id="PJq4ZduZdzAgiIetN25B-12" value="7" style="rounded=1;whiteSpace=wrap;html=1;fillColor=#007CBD;strokeColor=none;fontColor=#FFFFFF;fontStyle=1;fontSize=22;labelBackgroundColor=none;" vertex="1" parent="1">
          <mxGeometry x="840" y="480" width="40" height="38" as="geometry" />
        </mxCell>
        <mxCell id="PJq4ZduZdzAgiIetN25B-13" value="8" style="rounded=1;whiteSpace=wrap;html=1;fillColor=#007CBD;strokeColor=none;fontColor=#FFFFFF;fontStyle=1;fontSize=22;labelBackgroundColor=none;" vertex="1" parent="1">
          <mxGeometry x="840" y="577" width="40" height="38" as="geometry" />
        </mxCell>
        <mxCell id="PJq4ZduZdzAgiIetN25B-14" value="" style="sketch=0;outlineConnect=0;fontColor=#232F3E;gradientColor=none;fillColor=#ED7100;strokeColor=none;dashed=0;verticalLabelPosition=bottom;verticalAlign=top;align=center;html=1;fontSize=12;fontStyle=0;aspect=fixed;pointerEvents=1;shape=mxgraph.aws4.container_registry_image;movable=0;resizable=0;rotatable=0;deletable=0;editable=0;locked=1;connectable=0;" vertex="1" parent="1">
          <mxGeometry x="95" y="186" width="68" height="68" as="geometry" />
        </mxCell>
        <mxCell id="PJq4ZduZdzAgiIetN25B-15" value="" style="outlineConnect=0;dashed=0;verticalLabelPosition=bottom;verticalAlign=top;align=center;html=1;shape=mxgraph.aws3.cli;fillColor=#444444;gradientColor=none;" vertex="1" parent="1">
          <mxGeometry x="484" y="570" width="72" height="82.5" as="geometry" />
        </mxCell>
        <mxCell id="PJq4ZduZdzAgiIetN25B-16" value="" style="outlineConnect=0;dashed=0;verticalLabelPosition=bottom;verticalAlign=top;align=center;html=1;shape=mxgraph.aws3.rekognition;fillColor=#2E73B8;gradientColor=none;movable=0;resizable=0;rotatable=0;deletable=0;editable=0;locked=1;connectable=0;" vertex="1" parent="1">
          <mxGeometry x="661.75" y="173.5" width="76.5" height="93" as="geometry" />
        </mxCell>
        <mxCell id="PJq4ZduZdzAgiIetN25B-17" value="" style="sketch=0;outlineConnect=0;fontColor=#232F3E;gradientColor=none;fillColor=#DD344C;strokeColor=none;dashed=0;verticalLabelPosition=bottom;verticalAlign=top;align=center;html=1;fontSize=12;fontStyle=0;aspect=fixed;pointerEvents=1;shape=mxgraph.aws4.waf_labels;" vertex="1" parent="1">
          <mxGeometry x="95" y="383" width="78" height="78" as="geometry" />
        </mxCell>
        <mxCell id="PJq4ZduZdzAgiIetN25B-18" value="&lt;font style=&quot;font-size: 14px;&quot;&gt;Generated Screen&lt;/font&gt;" style="rounded=1;whiteSpace=wrap;html=1;" vertex="1" parent="1">
          <mxGeometry x="95" y="581.25" width="85" height="60" as="geometry" />
        </mxCell>
        <mxCell id="PJq4ZduZdzAgiIetN25B-20" value="&lt;font style=&quot;font-size: 14px;&quot;&gt;Simple&lt;/font&gt;&lt;div&gt;&lt;font style=&quot;font-size: 14px;&quot;&gt;Storage Service&lt;/font&gt;&lt;/div&gt;&lt;div&gt;&lt;font style=&quot;font-size: 14px;&quot;&gt;(S3)&lt;/font&gt;&lt;/div&gt;" style="text;html=1;align=center;verticalAlign=middle;whiteSpace=wrap;rounded=0;movable=0;resizable=0;rotatable=0;deletable=0;editable=0;locked=1;connectable=0;" vertex="1" parent="1">
          <mxGeometry x="307.5" y="268" width="62.5" height="72" as="geometry" />
        </mxCell>
        <mxCell id="PJq4ZduZdzAgiIetN25B-21" value="&lt;font style=&quot;font-size: 14px;&quot;&gt;AWS&amp;nbsp;&lt;/font&gt;&lt;div&gt;&lt;font style=&quot;font-size: 14px;&quot;&gt;Rekognition&lt;/font&gt;&lt;/div&gt;" style="text;html=1;align=center;verticalAlign=middle;whiteSpace=wrap;rounded=0;" vertex="1" parent="1">
          <mxGeometry x="650" y="280" width="100" height="30" as="geometry" />
        </mxCell>
        <mxCell id="PJq4ZduZdzAgiIetN25B-22" value="&lt;font style=&quot;font-size: 14px;&quot;&gt;IAM&lt;/font&gt;" style="text;html=1;align=center;verticalAlign=middle;whiteSpace=wrap;rounded=0;" vertex="1" parent="1">
          <mxGeometry x="621" y="399" width="60" height="30" as="geometry" />
        </mxCell>
        <mxCell id="PJq4ZduZdzAgiIetN25B-23" value="" style="endArrow=classic;startArrow=classic;html=1;rounded=0;strokeWidth=3;" edge="1" parent="1">
          <mxGeometry width="50" height="50" relative="1" as="geometry">
            <mxPoint x="519.5" y="558.5" as="sourcePoint" />
            <mxPoint x="519.5" y="465.5" as="targetPoint" />
            <Array as="points">
              <mxPoint x="519.5" y="514" />
            </Array>
          </mxGeometry>
        </mxCell>
        <mxCell id="PJq4ZduZdzAgiIetN25B-24" value="&lt;font style=&quot;font-size: 14px;&quot;&gt;User Authentication and Access&lt;/font&gt;" style="text;html=1;align=center;verticalAlign=middle;whiteSpace=wrap;rounded=0;" vertex="1" parent="1">
          <mxGeometry x="601.5" y="480" width="99" height="70" as="geometry" />
        </mxCell>
        <mxCell id="PJq4ZduZdzAgiIetN25B-25" value="&lt;font style=&quot;font-size: 14px;&quot;&gt;Image&lt;/font&gt;" style="text;html=1;align=center;verticalAlign=middle;whiteSpace=wrap;rounded=0;" vertex="1" parent="1">
          <mxGeometry x="99" y="268" width="60" height="30" as="geometry" />
        </mxCell>
        <mxCell id="PJq4ZduZdzAgiIetN25B-26" value="" style="endArrow=classic;html=1;rounded=0;strokeWidth=3;" edge="1" parent="1">
          <mxGeometry width="50" height="50" relative="1" as="geometry">
            <mxPoint x="180" y="230" as="sourcePoint" />
            <mxPoint x="250" y="230" as="targetPoint" />
          </mxGeometry>
        </mxCell>
        <mxCell id="PJq4ZduZdzAgiIetN25B-29" value="" style="endArrow=none;html=1;rounded=0;strokeWidth=3;" edge="1" parent="1">
          <mxGeometry width="50" height="50" relative="1" as="geometry">
            <mxPoint x="380" y="220" as="sourcePoint" />
            <mxPoint x="499" y="220" as="targetPoint" />
          </mxGeometry>
        </mxCell>
        <mxCell id="PJq4ZduZdzAgiIetN25B-30" value="" style="endArrow=classic;html=1;rounded=0;strokeWidth=3;" edge="1" parent="1">
          <mxGeometry width="50" height="50" relative="1" as="geometry">
            <mxPoint x="500" y="220" as="sourcePoint" />
            <mxPoint x="500" y="350" as="targetPoint" />
          </mxGeometry>
        </mxCell>
        <mxCell id="PJq4ZduZdzAgiIetN25B-31" value="" style="endArrow=none;html=1;rounded=0;strokeWidth=3;" edge="1" parent="1">
          <mxGeometry width="50" height="50" relative="1" as="geometry">
            <mxPoint x="530" y="220" as="sourcePoint" />
            <mxPoint x="656" y="220" as="targetPoint" />
          </mxGeometry>
        </mxCell>
        <mxCell id="PJq4ZduZdzAgiIetN25B-32" value="" style="endArrow=classic;html=1;rounded=0;strokeWidth=3;" edge="1" parent="1">
          <mxGeometry width="50" height="50" relative="1" as="geometry">
            <mxPoint x="530" y="220" as="sourcePoint" />
            <mxPoint x="530" y="350" as="targetPoint" />
          </mxGeometry>
        </mxCell>
        <mxCell id="PJq4ZduZdzAgiIetN25B-33" value="" style="edgeStyle=orthogonalEdgeStyle;htmDepartman barl=1;endArrow=open;elbow=vertical;startArrow=open;startFill=0;endFill=0;strokeColor=#000000;rounded=0;strokeWidth=3;" edge="1" parent="1">
          <mxGeometry width="100" relative="1" as="geometry">
            <mxPoint x="375" y="620" as="sourcePoint" />
            <mxPoint x="475" y="620" as="targetPoint" />
          </mxGeometry>
        </mxCell>
        <mxCell id="PJq4ZduZdzAgiIetN25B-34" value="&lt;font style=&quot;font-size: 14px;&quot;&gt;Upload&lt;/font&gt;" style="text;html=1;align=center;verticalAlign=middle;whiteSpace=wrap;rounded=0;" vertex="1" parent="1">
          <mxGeometry x="180" y="181" width="60" height="30" as="geometry" />
        </mxCell>
        <mxCell id="PJq4ZduZdzAgiIetN25B-35" value="&lt;font style=&quot;font-size: 14px;&quot;&gt;Extract the Image&lt;/font&gt;" style="text;html=1;align=center;verticalAlign=middle;whiteSpace=wrap;rounded=0;movable=0;resizable=0;rotatable=0;deletable=0;editable=0;locked=1;connectable=0;" vertex="1" parent="1">
          <mxGeometry x="384" y="178" width="100" height="30" as="geometry" />
        </mxCell>
        <mxCell id="PJq4ZduZdzAgiIetN25B-36" value="&lt;font style=&quot;font-size: 14px;&quot;&gt;Get results for the Image&lt;/font&gt;" style="text;html=1;align=center;verticalAlign=middle;whiteSpace=wrap;rounded=0;movable=0;resizable=0;rotatable=0;deletable=0;editable=0;locked=1;connectable=0;" vertex="1" parent="1">
          <mxGeometry x="541" y="181" width="100" height="30" as="geometry" />
        </mxCell>
        <mxCell id="PJq4ZduZdzAgiIetN25B-59" value="" style="edgeStyle=orthogonalEdgeStyle;rounded=0;orthogonalLoop=1;jettySize=auto;html=1;" edge="1" parent="1" source="PJq4ZduZdzAgiIetN25B-37" target="PJq4ZduZdzAgiIetN25B-58">
          <mxGeometry relative="1" as="geometry" />
        </mxCell>
        <mxCell id="PJq4ZduZdzAgiIetN25B-37" value="&lt;font style=&quot;font-size: 14px;&quot;&gt;Labels&lt;/font&gt;" style="text;html=1;align=center;verticalAlign=middle;whiteSpace=wrap;rounded=0;" vertex="1" parent="1">
          <mxGeometry x="95" y="473.5" width="60" height="30" as="geometry" />
        </mxCell>
        <mxCell id="PJq4ZduZdzAgiIetN25B-38" value="&lt;font style=&quot;font-size: 14px;&quot;&gt;Access to AWS using CLI&lt;/font&gt;" style="text;html=1;align=center;verticalAlign=middle;whiteSpace=wrap;rounded=0;" vertex="1" parent="1">
          <mxGeometry x="370" y="560" width="110" height="40" as="geometry" />
        </mxCell>
        <mxCell id="PJq4ZduZdzAgiIetN25B-39" value="&lt;h1 style=&quot;margin-top: 0px;&quot;&gt;&lt;u&gt;Images Labels Generator using AWS Rekognition&lt;/u&gt;&lt;/h1&gt;" style="text;html=1;whiteSpace=wrap;overflow=hidden;rounded=0;movable=0;resizable=0;rotatable=0;deletable=0;editable=0;locked=1;connectable=0;" vertex="1" parent="1">
          <mxGeometry x="140" y="10" width="620" height="50" as="geometry" />
        </mxCell>
        <mxCell id="PJq4ZduZdzAgiIetN25B-41" value="" style="endArrow=none;html=1;rounded=0;strokeWidth=3;" edge="1" parent="1">
          <mxGeometry width="50" height="50" relative="1" as="geometry">
            <mxPoint x="210" y="610" as="sourcePoint" />
            <mxPoint x="260" y="610" as="targetPoint" />
          </mxGeometry>
        </mxCell>
        <mxCell id="PJq4ZduZdzAgiIetN25B-42" value="" style="endArrow=none;html=1;rounded=0;strokeWidth=3;" edge="1" parent="1">
          <mxGeometry width="50" height="50" relative="1" as="geometry">
            <mxPoint x="209.5" y="441" as="sourcePoint" />
            <mxPoint x="209.5" y="610" as="targetPoint" />
          </mxGeometry>
        </mxCell>
        <mxCell id="PJq4ZduZdzAgiIetN25B-46" value="" style="endArrow=classic;html=1;rounded=0;strokeWidth=3;" edge="1" parent="1">
          <mxGeometry width="50" height="50" relative="1" as="geometry">
            <mxPoint x="210" y="441" as="sourcePoint" />
            <mxPoint x="173" y="441" as="targetPoint" />
          </mxGeometry>
        </mxCell>
        <mxCell id="PJq4ZduZdzAgiIetN25B-47" value="" style="endArrow=classic;html=1;rounded=0;strokeWidth=3;" edge="1" parent="1">
          <mxGeometry width="50" height="50" relative="1" as="geometry">
            <mxPoint x="259.5" y="630" as="sourcePoint" />
            <mxPoint x="200" y="630" as="targetPoint" />
            <Array as="points">
              <mxPoint x="219.5" y="630" />
            </Array>
          </mxGeometry>
        </mxCell>
        <mxCell id="PJq4ZduZdzAgiIetN25B-48" value="&lt;font style=&quot;font-size: 14px;&quot;&gt;Python&lt;/font&gt;&lt;div&gt;&lt;font style=&quot;font-size: 14px;&quot;&gt;File&lt;/font&gt;&lt;/div&gt;" style="text;html=1;align=center;verticalAlign=middle;whiteSpace=wrap;rounded=0;" vertex="1" parent="1">
          <mxGeometry x="290" y="660" width="60" height="40" as="geometry" />
        </mxCell>
        <mxCell id="PJq4ZduZdzAgiIetN25B-49" value="&lt;span style=&quot;font-size: 14px;&quot;&gt;Output&lt;/span&gt;" style="text;html=1;align=center;verticalAlign=middle;whiteSpace=wrap;rounded=0;" vertex="1" parent="1">
          <mxGeometry x="220" y="560" width="60" height="30" as="geometry" />
        </mxCell>
        <mxCell id="PJq4ZduZdzAgiIetN25B-50" value="1" style="rounded=1;whiteSpace=wrap;html=1;fillColor=#007CBD;strokeColor=none;fontColor=#FFFFFF;fontStyle=1;fontSize=22;labelBackgroundColor=none;" vertex="1" parent="1">
          <mxGeometry x="113.5" y="142" width="31" height="28" as="geometry" />
        </mxCell>
        <mxCell id="PJq4ZduZdzAgiIetN25B-51" style="edgeStyle=orthogonalEdgeStyle;rounded=0;orthogonalLoop=1;jettySize=auto;html=1;exitX=1;exitY=0.5;exitDx=0;exitDy=0;entryX=1;entryY=1;entryDx=0;entryDy=0;" edge="1" parent="1" source="PJq4ZduZdzAgiIetN25B-50" target="PJq4ZduZdzAgiIetN25B-50">
          <mxGeometry relative="1" as="geometry" />
        </mxCell>
        <mxCell id="PJq4ZduZdzAgiIetN25B-52" value="2" style="rounded=1;whiteSpace=wrap;html=1;fillColor=#007CBD;strokeColor=none;fontColor=#FFFFFF;fontStyle=1;fontSize=22;labelBackgroundColor=none;" vertex="1" parent="1">
          <mxGeometry x="319" y="142" width="31" height="28" as="geometry" />
        </mxCell>
        <mxCell id="PJq4ZduZdzAgiIetN25B-53" value="3" style="rounded=1;whiteSpace=wrap;html=1;fillColor=#007CBD;strokeColor=none;fontColor=#FFFFFF;fontStyle=1;fontSize=22;labelBackgroundColor=none;" vertex="1" parent="1">
          <mxGeometry x="684.5" y="138" width="31" height="28" as="geometry" />
        </mxCell>
        <mxCell id="PJq4ZduZdzAgiIetN25B-54" value="4" style="rounded=0;whiteSpace=wrap;html=1;fillColor=#007CBD;strokeColor=none;fontColor=#FFFFFF;fontStyle=1;fontSize=22;labelBackgroundColor=none;arcSize=50;" vertex="1" parent="1">
          <mxGeometry x="460" y="371" width="31" height="28" as="geometry" />
        </mxCell>
        <mxCell id="PJq4ZduZdzAgiIetN25B-55" value="5" style="rounded=0;whiteSpace=wrap;html=1;fillColor=#007CBD;strokeColor=none;fontColor=#FFFFFF;fontStyle=1;fontSize=22;labelBackgroundColor=none;arcSize=50;" vertex="1" parent="1">
          <mxGeometry x="569" y="562" width="31" height="28" as="geometry" />
        </mxCell>
        <mxCell id="PJq4ZduZdzAgiIetN25B-56" value="6" style="rounded=0;whiteSpace=wrap;html=1;fillColor=#007CBD;strokeColor=none;fontColor=#FFFFFF;fontStyle=1;fontSize=22;labelBackgroundColor=none;arcSize=50;" vertex="1" parent="1">
          <mxGeometry x="280" y="534" width="31" height="28" as="geometry" />
        </mxCell>
        <mxCell id="PJq4ZduZdzAgiIetN25B-57" value="7" style="rounded=0;whiteSpace=wrap;html=1;fillColor=#007CBD;strokeColor=none;fontColor=#FFFFFF;fontStyle=1;fontSize=22;labelBackgroundColor=none;arcSize=50;direction=south;glass=0;shadow=0;" vertex="1" parent="1">
          <mxGeometry x="110.5" y="338.5" width="28" height="31" as="geometry" />
        </mxCell>
        <mxCell id="PJq4ZduZdzAgiIetN25B-58" value="8" style="rounded=0;whiteSpace=wrap;html=1;fillColor=#007CBD;strokeColor=none;fontColor=#FFFFFF;fontStyle=1;fontSize=22;labelBackgroundColor=none;arcSize=50;" vertex="1" parent="1">
          <mxGeometry x="118.5" y="542" width="31" height="28" as="geometry" />
        </mxCell>
        <mxCell id="PJq4ZduZdzAgiIetN25B-60" value="&lt;font style=&quot;font-size: 14px;&quot;&gt;Upload the imagoe to Amazon S3 bucket.&lt;/font&gt;" style="text;html=1;align=left;verticalAlign=middle;whiteSpace=wrap;rounded=0;" vertex="1" parent="1">
          <mxGeometry x="930" y="20" width="280" height="42" as="geometry" />
        </mxCell>
        <mxCell id="PJq4ZduZdzAgiIetN25B-61" value="&lt;font style=&quot;font-size: 14px;&quot;&gt;The image stored in the S3 bucket will be used to analyze and generate labels.&amp;nbsp;&lt;/font&gt;" style="text;html=1;align=left;verticalAlign=middle;whiteSpace=wrap;rounded=0;" vertex="1" parent="1">
          <mxGeometry x="930" y="98" width="280" height="42" as="geometry" />
        </mxCell>
        <mxCell id="PJq4ZduZdzAgiIetN25B-62" value="&lt;font style=&quot;font-size: 14px;&quot;&gt;Amazon Rekognition will be used to analyze the selected image from the S3 bucket and detecting labels with their confidence levels.&amp;nbsp;&lt;/font&gt;" style="text;html=1;align=left;verticalAlign=middle;whiteSpace=wrap;rounded=0;" vertex="1" parent="1">
          <mxGeometry x="930" y="160" width="280" height="80" as="geometry" />
        </mxCell>
        <mxCell id="PJq4ZduZdzAgiIetN25B-64" value="&lt;font style=&quot;font-size: 14px;&quot;&gt;IAM will be used to provide user authorization and access to the AWS CLI on your system.&amp;nbsp;&lt;/font&gt;" style="text;html=1;align=left;verticalAlign=middle;whiteSpace=wrap;rounded=0;" vertex="1" parent="1">
          <mxGeometry x="930" y="241.5" width="280" height="63" as="geometry" />
        </mxCell>
        <mxCell id="PJq4ZduZdzAgiIetN25B-65" value="&lt;font style=&quot;font-size: 14px;&quot;&gt;AWS Command Line Interface (CLI) will be used for interacting with AWS Services.&amp;nbsp;&lt;/font&gt;" style="text;html=1;align=left;verticalAlign=middle;whiteSpace=wrap;rounded=0;" vertex="1" parent="1">
          <mxGeometry x="930" y="324.5" width="280" height="52" as="geometry" />
        </mxCell>
        <mxCell id="PJq4ZduZdzAgiIetN25B-67" value="&lt;font style=&quot;font-size: 14px;&quot;&gt;Python file will consists of the programming logic for extracting the image from S3 bucket and running detect_labels operation from AWS Rekognition.&amp;nbsp;&lt;/font&gt;" style="text;html=1;align=left;verticalAlign=middle;whiteSpace=wrap;rounded=0;" vertex="1" parent="1">
          <mxGeometry x="930" y="386" width="280" height="72" as="geometry" />
        </mxCell>
        <mxCell id="PJq4ZduZdzAgiIetN25B-68" value="&lt;font style=&quot;font-size: 14px;&quot;&gt;The output will consists of a number of specified labels accordinA lambda function to retreive the text and send it to Amazon g to the input with their confidence levels.&amp;nbsp;&amp;nbsp;&lt;/font&gt;" style="text;html=1;align=left;verticalAlign=middle;whiteSpace=wrap;rounded=0;" vertex="1" parent="1">
          <mxGeometry x="930" y="470" width="280" height="72" as="geometry" />
        </mxCell>
        <mxCell id="PJq4ZduZdzAgiIetN25B-69" value="&lt;font style=&quot;font-size: 14px;&quot;&gt;A pop-up screen will be generated with the image chosen from the S3 bucket with bounding boxes around the detected labels.&amp;nbsp;&lt;/font&gt;" style="text;html=1;align=left;verticalAlign=middle;whiteSpace=wrap;rounded=0;" vertex="1" parent="1">
          <mxGeometry x="930" y="560" width="280" height="72" as="geometry" />
        </mxCell>
      </root>
    </mxGraphModel>
  </diagram>
</mxfile>
